<svg xmlns="http://www.w3.org/2000/svg" width="1em" height="1em" viewBox="0 0 36 36"><path fill="#ffc700" d="M32.25 6h-4v3a2.2 2.2 0 1 1-4.4 0V6H12.2v3a2.2 2.2 0 0 1-4.4 0V6h-4A1.78 1.78 0 0 0 2 7.81v22.38A1.78 1.78 0 0 0 3.75 32h28.5A1.78 1.78 0 0 0 34 30.19V7.81A1.78 1.78 0 0 0 32.25 6M10 26H8v-2h2Zm0-5H8v-2h2Zm0-5H8v-2h2Zm6 10h-2v-2h2Zm0-5h-2v-2h2Zm0-5h-2v-2h2Zm6 10h-2v-2h2Zm0-5h-2v-2h2Zm0-5h-2v-2h2Zm6 10h-2v-2h2Zm0-5h-2v-2h2Zm0-5h-2v-2h2Z" class="clr-i-solid clr-i-solid-path-1"/><path fill="#ffc700" d="M10 10a1 1 0 0 0 1-1V3a1 1 0 0 0-2 0v6a1 1 0 0 0 1 1" class="clr-i-solid clr-i-solid-path-2"/><path fill="#ffc700" d="M26 10a1 1 0 0 0 1-1V3a1 1 0 0 0-2 0v6a1 1 0 0 0 1 1" class="clr-i-solid clr-i-solid-path-3"/><path fill="none" d="M0 0h36v36H0z"/></svg>